<svg width="18" height="17" viewBox="0 0 18 17" fill="none" xmlns="http://www.w3.org/2000/svg">
<path fill-rule="evenodd" clip-rule="evenodd" d="M9.69663 16.3365C9.69661 16.5124 9.62582 16.6811 9.49999 16.8056C9.37414 16.93 9.20352 17 9.02556 17C8.84759 17 8.67697 16.93 8.55112 16.8056C8.42529 16.6811 8.35451 16.5124 8.35449 16.3365V14.8687C7.58601 14.8159 6.83709 14.6003 6.15896 14.2348C5.8988 14.2736 5.63606 14.2935 5.37281 14.2937H5.37242C4.06775 14.2936 2.8076 13.8241 1.82731 12.9728C0.847064 12.1216 0.213605 10.9467 0.0450438 9.66755C-0.12351 8.38833 0.184395 7.09211 0.911375 6.02091C1.59369 5.01552 2.60134 4.27269 3.76523 3.91185C4.06365 2.83205 4.70012 1.87079 5.5865 1.16795C6.53551 0.415483 7.71482 0.00369472 8.93126 2.45918e-05C10.1477 -0.0036342 11.3295 0.401074 12.2831 1.14779C13.1728 1.84452 13.8148 2.80059 14.1202 3.87715C15.1955 4.18744 16.1486 4.82201 16.8443 5.69524C17.5903 6.63171 17.9972 7.78848 18 8.98056C18.0017 9.75531 17.8315 10.5212 17.5016 11.2239C17.1718 11.9267 16.6902 12.5495 16.0907 13.0484C15.4912 13.5473 14.7884 13.9101 14.0318 14.1115C13.3201 14.3009 12.577 14.343 11.849 14.2359C11.178 14.5779 10.447 14.7869 9.69663 14.8526V16.3365ZM7.84124 9.45471C8.09766 8.9529 8.43112 8.49424 8.82892 8.09448C9.29504 8.53002 9.67948 9.04502 9.96246 9.61618V9.61657C10.0064 9.70501 10.0697 9.7827 10.1477 9.84395C10.2258 9.9052 10.3167 9.94852 10.4138 9.97073C10.5108 9.99293 10.6117 9.99341 10.709 9.97228C10.8056 9.95129 10.8963 9.90928 10.9747 9.84957L10.9749 9.84977C11.4421 9.49516 11.9705 9.22953 12.5332 9.06508C12.5864 9.32254 12.6394 9.64722 12.6634 10.0019C12.7021 10.573 12.6641 11.1935 12.4574 11.7309C12.3568 11.9925 12.1196 12.4435 11.5942 12.83C11.0718 13.2141 10.2327 13.5584 8.88617 13.5584C7.23002 13.5584 6.08827 12.8757 5.56533 11.6998C5.33641 11.185 5.29372 10.5757 5.33733 10.0068C5.36483 9.648 5.4255 9.31863 5.48574 9.05984C5.97511 9.20033 6.43942 9.41781 6.86042 9.70458C6.93978 9.75861 7.03017 9.7951 7.12508 9.81158C7.21996 9.82804 7.31732 9.824 7.41052 9.79995C7.50375 9.77588 7.59073 9.73224 7.66538 9.67201C7.73892 9.61266 7.79862 9.53844 7.84104 9.45451L7.84124 9.45471ZM6.37206 2.2471C7.09273 1.65497 7.99955 1.32966 8.93655 1.3271C9.87358 1.32456 10.7824 1.64492 11.5063 2.23314C12.2303 2.82134 12.7242 3.64043 12.9034 4.5498C12.9286 4.67872 12.992 4.7973 13.0855 4.89059C13.179 4.98393 13.2985 5.04785 13.4288 5.07396C14.4082 5.27049 15.2789 5.81967 15.8719 6.61505C16.4649 7.41043 16.738 8.3953 16.6382 9.37853C16.5384 10.3618 16.0729 11.2733 15.3318 11.9363C14.7712 12.4379 14.0831 12.7697 13.3486 12.9019C13.4928 12.6835 13.6145 12.4503 13.7109 12.2056L13.7115 12.2042L13.7121 12.2027C14.0718 11.2675 14.0589 10.25 13.9636 9.47874C13.8675 8.70157 13.6823 8.13369 13.663 8.07588L13.6628 8.07529C13.6145 7.93075 13.5172 7.80695 13.3876 7.72482C13.258 7.64274 13.1038 7.60727 12.9508 7.62421L12.9445 7.62479L12.9383 7.62576C12.1796 7.73379 11.4513 7.98789 10.7935 8.37149C10.3733 7.71635 9.83458 7.14188 9.2022 6.67863L9.19749 6.67533L9.19298 6.67204L9.14828 6.64374C9.05707 6.59086 8.95446 6.56004 8.84892 6.55379L8.79599 6.55282C8.65429 6.55549 8.51714 6.60246 8.40409 6.68696L8.39821 6.69123L8.39272 6.69569C7.84806 7.13398 7.37813 7.65455 6.99922 8.23716C6.40663 7.9259 5.76288 7.71849 5.09639 7.62557L5.09129 7.62479L5.08619 7.62421L5.02993 7.62014C4.89872 7.61619 4.76873 7.65039 4.65646 7.7192C4.52855 7.79758 4.43104 7.91629 4.37964 8.0561C4.35749 8.11608 4.14839 8.69747 4.04107 9.48592C3.93473 10.2672 3.92173 11.2991 4.33573 12.2318C4.44003 12.47 4.56581 12.6977 4.71115 12.9124C3.96247 12.7891 3.25934 12.4585 2.68678 11.9524C1.94804 11.2995 1.47836 10.4004 1.36758 9.42679C1.2568 8.45316 1.51272 7.47331 2.08628 6.67436C2.65972 5.8756 3.51046 5.31337 4.47629 5.09548L4.47649 5.09568C4.60411 5.06709 4.72049 5.00213 4.81133 4.909C4.90215 4.81589 4.96349 4.69861 4.98778 4.57151L5.00503 4.48641C5.1927 3.60999 5.67391 2.82072 6.37206 2.2471Z" fill="white"/>
</svg>
