<svg width="90" height="86" viewBox="0 0 90 86" fill="none" xmlns="http://www.w3.org/2000/svg">
<path d="M68.6907 21.1612C67.4226 15.6999 64.3387 10.8306 59.9434 7.34983C55.5481 3.86909 50.1017 1.98301 44.4951 2.00012C38.8885 2.01722 33.4537 3.93651 29.0798 7.444C24.7058 10.9515 21.6516 15.8395 20.4169 21.3085C14.6045 22.8497 9.55142 26.4532 6.20074 31.4465C2.85007 36.4397 1.43073 42.4816 2.2076 48.4445C2.98446 54.4074 5.90447 59.8839 10.4227 63.852C14.9408 67.8201 20.7485 70.0086 26.7618 70.0091C28.1984 70.0081 29.6322 69.8799 31.0462 69.626C34.8623 71.8437 39.2026 72.999 43.6162 72.972V82.2995C43.6162 82.6556 43.7577 82.9972 44.0095 83.249C44.2613 83.5008 44.6029 83.6423 44.959 83.6423C45.3151 83.6423 45.6567 83.5008 45.9085 83.249C46.1603 82.9972 46.3018 82.6556 46.3018 82.2995V72.9346C50.6338 72.8456 54.8806 71.7146 58.683 69.6372C62.2395 70.2613 65.8896 70.0984 69.3764 69.1599C72.8632 68.2213 76.1019 66.5299 78.8646 64.2048C81.6272 61.8797 83.8467 58.9774 85.3668 55.7021C86.8869 52.4267 87.6707 48.8581 87.663 45.2472C87.6503 39.6889 85.7742 34.2954 82.3348 29.929C78.8955 25.5626 74.0914 22.4755 68.6907 21.1612ZM44.2649 70.3042C35.4098 70.3042 28.8849 66.5542 25.8913 59.7461C23.2406 53.7166 25.08 45.9889 25.8895 43.2268C29.2664 43.9208 32.4694 45.2863 35.3084 47.2421C35.4672 47.3514 35.6477 47.4253 35.8376 47.4586C36.0275 47.492 36.2224 47.484 36.4089 47.4353C36.5955 47.3866 36.7694 47.2983 36.9187 47.1764C37.0681 47.0545 37.1895 46.9019 37.2746 46.7289C38.9315 43.4496 41.189 40.5103 43.93 38.0636C47.0735 40.6628 49.6274 43.9017 51.4218 47.5647C51.5097 47.7437 51.6363 47.9009 51.7925 48.0249C51.9487 48.1489 52.1305 48.2365 52.3248 48.2815C52.5191 48.3264 52.721 48.3275 52.9158 48.2847C53.1105 48.242 53.2933 48.1563 53.4509 48.0341C56.5346 45.6671 60.1124 44.026 63.918 43.2329C64.6524 46.0182 66.268 53.6458 63.9233 59.8091C62.7241 62.9646 58.4055 70.3042 44.2649 70.3042ZM62.9018 67.3235C62.5686 67.3235 62.2354 67.3143 61.9025 67.2991C63.9062 65.5074 65.4589 63.2683 66.4345 60.7637C69.6875 52.2108 66.3052 41.7511 66.16 41.31C66.0632 41.0173 65.8686 40.7668 65.609 40.6005C65.3495 40.4342 65.0406 40.3621 64.7342 40.3965C60.5526 40.9987 56.5684 42.5654 53.0965 44.9726C51.0219 41.1559 48.1385 37.8385 44.648 35.2526C44.4154 35.0902 44.1373 35.0057 43.8537 35.0111C43.57 35.0165 43.2954 35.1115 43.0691 35.2826C40.0275 37.7579 37.4819 40.7865 35.5665 44.2085C32.3858 42.2187 28.8224 40.9198 25.1073 40.396C24.8078 40.3615 24.5054 40.4292 24.2492 40.588C23.9929 40.7468 23.7978 40.9875 23.6954 41.2711C23.5311 41.7211 19.7254 52.3934 23.4331 60.8262C24.4893 63.2662 26.0323 65.465 27.9676 67.2881C27.5676 67.3098 27.166 67.323 26.7622 67.323C21.3346 67.3225 16.0973 65.3227 12.0507 61.7054C8.00415 58.0882 5.43181 53.1071 4.82503 47.7135C4.21826 42.3199 5.61956 36.8918 8.76131 32.4659C11.9031 28.04 16.5651 24.9265 21.8569 23.7201C22.1124 23.6622 22.3455 23.531 22.5273 23.3424C22.7092 23.1538 22.832 22.9162 22.8806 22.6588C23.8342 17.6155 26.5154 13.0622 30.463 9.7819C34.4106 6.50162 39.3779 4.69946 44.5105 4.68539C49.6431 4.67131 54.6202 6.4462 58.5858 9.70478C62.5513 12.9634 65.2575 17.5019 66.2387 22.5399C66.2891 22.8011 66.416 23.0414 66.6033 23.2304C66.7905 23.4193 67.0297 23.5484 67.2904 23.6012C72.6552 24.6899 77.4243 27.7324 80.6726 32.1386C83.9209 36.5448 85.4168 42.0004 84.8701 47.4472C84.3234 52.8939 81.7731 57.9434 77.7138 61.6161C73.6546 65.2888 68.3759 67.3228 62.9018 67.3235Z" fill="white" stroke="white" stroke-width="4"/>
</svg>