<svg width="90" height="86" viewBox="0 0 90 86" fill="none" xmlns="http://www.w3.org/2000/svg">
<path fill-rule="evenodd" clip-rule="evenodd" d="M48.3015 82.2999C48.3015 83.1864 47.9489 84.0364 47.322 84.6632C46.6952 85.29 45.8452 85.6427 44.9588 85.6427C44.0723 85.6427 43.2224 85.29 42.5955 84.6632C41.9687 84.0364 41.6161 83.1864 41.616 82.2999V74.9054C37.788 74.6399 34.0574 73.5533 30.6795 71.712C29.3836 71.9078 28.0747 72.008 26.7634 72.0089H26.7615C20.2625 72.0083 13.9854 69.6432 9.10231 65.3546C4.21946 61.0661 1.06402 55.1475 0.224376 48.7032C-0.615236 42.2588 0.918522 35.7287 4.53981 30.3322C7.9386 25.2672 12.958 21.525 18.7556 19.7072C20.2421 14.2673 23.4126 9.42466 27.8279 5.88391C32.5551 2.09312 38.4296 0.0186133 44.489 0.000123889C50.5484 -0.0183084 56.4351 2.02053 61.1853 5.78235C65.6173 9.29231 68.8151 14.1088 70.3367 19.5324C75.6932 21.0955 80.4408 24.2924 83.906 28.6915C87.6221 33.4093 89.649 39.2368 89.6628 45.2423C89.6711 49.1454 88.8235 53.0037 87.1804 56.5441C85.5373 60.0845 83.1384 63.2222 80.1521 65.7355C77.1659 68.2486 73.6651 70.0764 69.8962 71.0909C66.3511 72.0452 62.6496 72.2575 59.0232 71.7179C55.6807 73.4407 52.0393 74.4936 48.3015 74.8243V82.2999ZM39.0593 47.631C40.3367 45.103 41.9977 42.7923 43.9793 40.7784C46.3011 42.9726 48.2161 45.5671 49.6258 48.4445V48.4464C49.8445 48.8919 50.1598 49.2833 50.5486 49.5919C50.9374 49.9005 51.3902 50.1187 51.8738 50.2306C52.3573 50.3424 52.8598 50.3449 53.3445 50.2384C53.8259 50.1327 54.2775 49.921 54.6677 49.6202L54.6687 49.6212C56.9961 47.8348 59.6284 46.4966 62.4314 45.6681C62.6964 46.9651 62.9602 48.6008 63.0799 50.3878C63.2725 53.2645 63.0834 56.3905 62.0535 59.0978C61.5525 60.4159 60.3708 62.688 57.7537 64.6349C55.1518 66.5702 50.9718 68.3048 44.2644 68.3048C36.0147 68.3047 30.3273 64.8651 27.7224 58.9415C26.5821 56.3476 26.3695 53.2785 26.5867 50.4122C26.7237 48.6047 27.0259 46.9454 27.3259 45.6417C29.7637 46.3495 32.0765 47.4451 34.1736 48.8898C34.569 49.162 35.0192 49.3458 35.492 49.4288C35.9646 49.5117 36.4496 49.4914 36.9138 49.3702C37.3782 49.249 37.8115 49.0292 38.1834 48.7257C38.5497 48.4267 38.8471 48.0528 39.0584 47.63L39.0593 47.631ZM31.741 11.3204C35.3308 8.33744 39.8479 6.69856 44.5154 6.68567C49.183 6.67287 53.7099 8.28678 57.3162 11.2501C60.9222 14.2134 63.3828 18.3398 64.2751 22.921C64.4009 23.5705 64.7167 24.1678 65.1824 24.6378C65.6484 25.1081 66.2435 25.4301 66.8923 25.5616C71.7711 26.5517 76.1082 29.3184 79.0623 33.3253C82.0163 37.3323 83.3767 42.2939 82.8796 47.2472C82.3824 52.2005 80.0633 56.7929 76.3718 60.1329C73.5793 62.6596 70.1516 64.3315 66.4929 64.9972C67.2114 63.897 67.8174 62.7221 68.2976 61.4894L68.3005 61.4825L68.3035 61.4747C70.0954 56.7633 70.0314 51.6375 69.5564 47.7521C69.0777 43.8368 68.1552 40.9759 68.0593 40.6847L68.0583 40.6818C67.8174 39.9536 67.3331 39.3299 66.6873 38.9161C66.0416 38.5027 65.2734 38.324 64.5115 38.4093L64.4802 38.4122L64.449 38.4171C60.6699 38.9613 57.0423 40.2415 53.7654 42.174C51.6723 38.8735 48.9887 35.9794 45.8386 33.6456L45.8152 33.629L45.7927 33.6124L45.5701 33.4698C45.1157 33.2035 44.6046 33.0482 44.0789 33.0167L43.8152 33.0118C43.1094 33.0253 42.4262 33.2619 41.8631 33.6876L41.8338 33.7091L41.8064 33.7316C39.0933 35.9396 36.7525 38.5622 34.865 41.4972C31.9132 39.9292 28.7065 38.8843 25.3865 38.4161L25.3611 38.4122L25.3357 38.4093L25.0554 38.3888C24.4019 38.3689 23.7543 38.5412 23.1951 38.8878C22.558 39.2827 22.0722 39.8807 21.8162 40.5851C21.7059 40.8873 20.6642 43.8162 20.1297 47.7882C19.6 51.724 19.5352 56.9226 21.5974 61.6212C22.117 62.8215 22.7435 63.9687 23.4675 65.0499C19.7381 64.4291 16.2357 62.7635 13.3836 60.214C9.7037 56.9245 7.36413 52.3952 6.81227 47.4904C6.26046 42.5854 7.53525 37.6491 10.3923 33.6241C13.2488 29.6001 17.4866 26.7677 22.2976 25.67L22.2986 25.671C22.9343 25.527 23.514 25.1997 23.9666 24.7306C24.4189 24.2615 24.7245 23.6707 24.8455 23.0304L24.9314 22.6017C25.8663 18.1864 28.2633 14.2103 31.741 11.3204Z" fill="white"/>
</svg>
